<?xml version="1.0" encoding="UTF-8" standalone="no"?>
<!-- Created with Inkscape (http://www.inkscape.org/) -->

<svg
   xmlns:dc="http://purl.org/dc/elements/1.1/"
   xmlns:cc="http://creativecommons.org/ns#"
   xmlns:rdf="http://www.w3.org/1999/02/22-rdf-syntax-ns#"
   xmlns:svg="http://www.w3.org/2000/svg"
   xmlns="http://www.w3.org/2000/svg"
   xmlns:sodipodi="http://sodipodi.sourceforge.net/DTD/sodipodi-0.dtd"
   xmlns:inkscape="http://www.inkscape.org/namespaces/inkscape"
   version="1.0"
   width="250"
   height="350"
   viewBox="0 0 148.54199 198.72119"
   id="svg4779"
   xml:space="preserve"
   inkscape:version="0.47 r22583"
   sodipodi:docname="Beaker_fl.svg"><metadata
   id="metadata11"><rdf:RDF><cc:Work
       rdf:about=""><dc:format>image/svg+xml</dc:format><dc:type
         rdf:resource="http://purl.org/dc/dcmitype/StillImage" /><dc:title></dc:title></cc:Work></rdf:RDF></metadata><sodipodi:namedview
   pagecolor="#ffffff"
   bordercolor="#666666"
   borderopacity="1"
   objecttolerance="10"
   gridtolerance="10"
   guidetolerance="10"
   inkscape:pageopacity="0"
   inkscape:pageshadow="2"
   inkscape:window-width="1366"
   inkscape:window-height="693"
   id="namedview9"
   showgrid="false"
   inkscape:zoom="1.907168"
   inkscape:cx="102.51841"
   inkscape:cy="120.32802"
   inkscape:window-x="0"
   inkscape:window-y="24"
   inkscape:window-maximized="1"
   inkscape:current-layer="Ebene_1" /><defs
   id="defs4793"><inkscape:perspective
     sodipodi:type="inkscape:persp3d"
     inkscape:vp_x="0 : 175 : 1"
     inkscape:vp_y="0 : 1000 : 0"
     inkscape:vp_z="250 : 175 : 1"
     inkscape:persp3d-origin="125 : 116.66667 : 1"
     id="perspective13" /></defs>
	
		<g
   transform="matrix(0.940522,0,0,0.940522,4.9382988,6.6766186)"
   id="Ebene_1">
			<path
   d="m 148.24023,56.362793 c -1.40039,-8.700195 -3.10058,-17.399902 -4.60058,-26.100098 -1,-5.799804 -5,-10.299804 -9.29981,-13.899902 -7.2998,-5.800293 -16.09961,-9.300293 -25,-11.800293 -18.099606,-5 -37.100094,-5.2998047 -55.600094,-3.699707 -11.299805,1.199707 -22.5,3.5 -33,7.8999023 C 14.140137,11.5625 7.5400391,15.362793 3.1401367,21.162598 c -4,5.300293 -4.300293,13.200195 -0.2001953,18.600097 0.8999023,1.5 2.5,2.799805 2.5,4.600098 1.7998047,34.5 3.6000977,68.999027 5.3999026,103.399417 0.200195,5.59961 0.700195,11.09961 0.200195,16.59961 -0.600098,8.30078 4.699707,15.5 10.799805,20.40039 10.5,8.20117 23.700195,11.90039 36.700195,13.40039 17.399414,1.59961 35.700195,0 51.500001,-8 7.70019,-4 15.09961,-9.69922 18.20019,-18 1.79981,-4.40039 0.89942,-9.30078 1.29981,-13.90039 2,-26.29883 4,-52.59961 5.90039,-78.899417 -0.10059,-2.700195 1.89941,-4.600098 3.39941,-6.5 2.79981,-3.200195 5.40039,-6.600098 8.5,-9.5 2,-1.700195 0.90039,-4.700195 0.90039,-7 z M 111.54004,183.6626 c -14.09961,8.40039 -31.000001,10.80078 -47.200196,10 -13.399903,-0.90039 -27.199707,-4 -38.299805,-12 -5.5,-4 -10.5,-10.09961 -10.100098,-17.30078 0.600098,-7.29883 6,-12.89844 11.700196,-16.69922 10.699707,-7 23.5,-9.90039 36.099609,-10.80078 15.800293,-0.89844 32.200684,1.30078 46.100094,9 6.90039,4 13.90039,10 14.60059,18.5 0.5,8.40039 -6.2002,15.10156 -12.90039,19.30078 z m 11,-96.500002 c 0.90039,0.700195 1.7998,1.399902 2.59961,2.200195 2.20019,-2.5 4.20019,-5 6.40039,-7.399902 -1.5,23.898929 -3.40039,47.898929 -5.29981,71.799319 -8.5,-11.5 -22.2998,-17.40039 -35.999996,-20.09961 -18.500488,-3.59961 -38.300293,-2.5 -55.800293,4.80078 -7.700195,3.09961 -14.5,8.09961 -19.799804,14.5 -1.900391,-35.5 -3.700196,-71.100587 -5.5000003,-106.600587 9.5996093,6.699707 21.0996093,10.199707 32.5000003,12.5 20.799804,3.799805 42.199707,3.600098 62.899903,-0.5 3.5,-0.700195 7,0 10.39941,0.699707 8.50098,1.900391 16.90039,4.400391 25.60059,5.900391 -5.5,7.799804 -12.2002,14.699707 -18,22.199707 z m -23.299806,-35 c -17.332031,2.950195 -35.087402,3.095703 -52.406738,0.437011 -1.07373,-0.165039 -8.691894,-1.664062 -11.998535,-2.52832 -6.042481,-1.577637 -11.931152,-3.821777 -17.39502,-6.808594 -4.399902,-2.5 -9.1000973,-5.799804 -10.3999019,-11 C 6.1401368,27.662598 9.6401368,23.662598 13.040039,21.0625 21.640137,14.762695 32.140137,11.762695 42.439941,9.6625977 c 24,-4.3999023 49.399903,-3.8999023 72.600099,4.0000003 8.20019,3.200195 17.5,7.399902 21.20019,15.899902 2.09961,9.400391 3.5,18.900391 5.2002,28.300293 -14.10059,-1.600098 -27.90039,-9.399902 -42.200196,-5.700195 z"
   style="fill:#1f1a18"
   id="path4784" />
			<g
   id="g4786">
				<path
   d="m 27.606934,81.544434 c 0.836914,-0.388184 1.710937,-0.761231 2.601562,-1.126465 3.551758,-1.456543 7.516113,-2.723145 11.813477,-3.765137 L 41.353027,37.623047 c -5.748046,1.375488 -10.937011,3.142578 -15.352539,5.230469"
   style="fill:none;stroke:#1f1a18"
   id="path4788" />
				<path
   d="m 42.021973,76.652832 0.310058,18.084473"
   style="fill:none;stroke:#1f1a18"
   id="path4790" />
			</g>
		<path
   sodipodi:type="arc"
   style="opacity:0.8;fill:#0000ff"
   id="path2825"
   sodipodi:cx="165.16637"
   sodipodi:cy="197.41774"
   sodipodi:rx="71.834259"
   sodipodi:ry="19.400494"
   d="m 237.00063,197.41774 c 0,10.7146 -32.1613,19.40049 -71.83426,19.40049 -39.67297,0 -71.834262,-8.68589 -71.834262,-19.40049 0,-10.7146 32.161292,-19.40049 71.834262,-19.40049 39.67296,0 71.83426,8.68589 71.83426,19.40049 z"
   transform="matrix(0.83233261,0,0,1.2122631,-66.655381,-119.65858)" /><path
   style="opacity:0.80753138;fill:#0000ff;stroke-width:0.1;stroke-miterlimit:4;stroke-dasharray:none"
   d="m 62.299472,195.28256 c -10.881405,-0.92251 -21.205104,-3.7571 -29.136425,-8 -8.752807,-4.68236 -14.017423,-9.85014 -16.577789,-16.27283 -0.754668,-1.8931 -0.867749,-2.67483 -0.855991,-5.91761 0.01585,-4.37245 0.740345,-6.68824 3.268766,-10.44841 4.05574,-6.03153 12.66184,-11.92494 22.344076,-15.30109 l 3.520837,-1.2277 2.569294,0.48402 c 6.889954,1.29797 12.524806,1.72538 22.747205,1.72538 10.197637,0 15.735221,-0.41811 22.747203,-1.71746 2.565211,-0.47535 2.574881,-0.47417 6.090125,0.74358 4.810347,1.6664 12.334997,5.64562 15.656337,8.27949 8.03851,6.37459 11.5531,14.20376 9.69701,21.60124 -1.51736,6.04742 -7.22961,12.51259 -14.95849,16.93012 -12.673806,7.24386 -29.905391,10.58003 -47.112158,9.12127 l 0,0 z"
   id="path2829" /><path
   style="opacity:0.8;fill:#0000ff"
   d="m 123.52827,152.00793 c -5.03105,-5.47565 -10.95671,-9.88966 -17.27513,-12.86822 -1.2739,-0.60053 -2.23816,-1.17543 -2.14284,-1.27758 0.0953,-0.10214 1.76809,-0.7808 3.7172,-1.50813 4.61592,-1.72246 9.71222,-4.32433 12.959,-6.61609 3.3597,-2.37146 6.96231,-6.40921 8.08876,-9.06575 0.58426,-1.3779 0.89684,-1.80377 0.91082,-1.24096 0.0271,1.08827 -2.55409,36.27919 -2.66584,36.34603 -0.0457,0.0273 -1.66207,-1.66886 -3.59197,-3.7693 z"
   id="path2831" /><path
   style="opacity:0.8;fill:#0000ff"
   d="m 13.546736,152.28761 c -0.246521,-2.38876 -1.334992,-24.42104 -1.334423,-27.0107 l 4e-4,-1.81605 2.136836,2.22185 c 3.903562,4.05887 10.402696,7.84779 18.140663,10.57577 l 4.111864,1.44963 -3.396518,1.56535 c -5.964709,2.74894 -13.342851,8.17027 -17.587833,12.92323 l -1.864884,2.08805 -0.206105,-1.99713 z"
   id="path2833" /></g>
	</svg>